# xmcd
#
# Track frame offsets: 
#        150
#        14689
#        24520
#        33717
#        49782
#        63671
#        78653
#        94186
#        105370
#        118841
#        134106
#        148004
#        161310
#        174770
#        192359
#        208194
#        223313
#        237108
#        253252
#        268065
#        282731
#        297709
#        312421
#        329912
#
# Disc length: 4600 seconds
#
# Revision: 0
# Processed by: cddbd v1.5.2PL0 Copyright (c) Steve Scherf et al.
# Submitted via: ExactAudioCopyFreeDBPlugin 1.0
#
DISCID=8e11f618
DTITLE=Édith Piaf - Edith PIAF best of [CD5]
DYEAR=2010
DGENRE=Oldies
TTITLE0=Les Amants D'un Jour
TTITLE1=Johnny Tu N'es Pas Un Ange
TTITLE2=La Goualante Du Pauvre
TTITLE3=Les Croix
TTITLE4=N'Y Vas Pas Manuel
TTITLE5=Heureuse
TTITLE6=La Petite Marie
TTITLE7=Dans Les Prisions De Nantes
TTITLE8=Et Pourtant
TTITLE9=Le Noel De La Rue
TTITLE10=Adieu Mon Coeur
TTITLE11=Au Bal De La Chance
TTITLE12=Avant Nous
TTITLE13=Les Prisions Du Roy
TTITLE14=Elle Frequentait La Rue Pigalle
TTITLE15=Dans Ma rue
TTITLE16=Un Refrain Courait Dans La Rue
TTITLE17=C'est Un Monsieur Tres Distingue
TTITLE18=J'ai Danse Avec L'amour
TTITLE19=Je N'en Connais Pas La Fin
TTITLE20=Du Matin Jusqu'au Soir
TTITLE21=Eden Blues
TTITLE22=Elle A Dit
TTITLE23=Hymn To Love
EXTD=
EXTT0=
EXTT1=
EXTT2=
EXTT3=
EXTT4=
EXTT5=
EXTT6=
EXTT7=
EXTT8=
EXTT9=
EXTT10=
EXTT11=
EXTT12=
EXTT13=
EXTT14=
EXTT15=
EXTT16=
EXTT17=
EXTT18=
EXTT19=
EXTT20=
EXTT21=
EXTT22=
EXTT23=
PLAYORDER=
